<svg width="72" height="72" viewBox="0 0 72 72" fill="none" xmlns="http://www.w3.org/2000/svg">
<path d="M35.5 60C49.031 60 60 49.9264 60 37.5C60 25.0736 49.031 15 35.5 15C21.969 15 11 25.0736 11 37.5C11 49.9264 21.969 60 35.5 60Z" fill="#EA5A47" stroke="#EA5A47" stroke-width="1.8" stroke-miterlimit="10" stroke-linecap="round" stroke-linejoin="round"/>
<path d="M49.4898 15.7279C49.0175 17.1026 48.2677 18.742 46.4943 19.9392C39.2522 24.8277 29.7226 23.1249 25.4994 19.9391C23.8264 18.6627 22.9897 17.1026 22.5176 15.7278C21.735 13.4585 22.0723 11.5821 22.0723 11.5821C22.0723 11.5821 24.8789 11.2548 28.0227 12.1603C29.0887 12.4658 30.195 12.9131 31.2475 13.5569C31.8411 10.2075 34.6072 7.97093 35.6191 7.25089L35.9969 7L36.3747 7.25089C37.3868 7.97103 40.1529 10.2075 40.7465 13.5569C41.7989 12.9132 42.9053 12.4659 43.9712 12.1603C47.1151 11.2548 49.9216 11.5821 49.9216 11.5821C49.9216 11.5821 50.2725 13.4586 49.4898 15.7279Z" fill="#B1CC33"/>
</svg>
